<svg xmlns="http://www.w3.org/2000/svg" viewBox="0 0 512 512" width="512" height="512">
  <rect width="512" height="512" rx="64" fill="#2C3E50" />
  <!-- 打开的书本 -->
  <g fill="#FAFAF5">
    <path d="M256 168 C220 140 168 136 132 144 C124 146 120 152 120 160 L120 372 C120 380 128 384 136 382 C176 374 220 378 256 404 Z" />
    <path d="M256 168 C292 140 344 136 380 144 C388 146 392 152 392 160 L392 372 C392 380 384 384 376 382 C336 374 292 378 256 404 Z" />
  </g>
  <line x1="256" y1="168" x2="256" y2="404" stroke="#2C3E50" stroke-width="6" />
</svg>
